<?xml version="1.0" encoding="UTF-8" standalone="no"?>
<!DOCTYPE svg PUBLIC "-//W3C//DTD SVG 1.1//EN" "http://www.w3.org/Graphics/SVG/1.1/DTD/svg11.dtd">
<svg version="1.1" xmlns="http://www.w3.org/2000/svg" xmlns:xlink="http://www.w3.org/1999/xlink" preserveAspectRatio="xMidYMid meet" viewBox="0 0 640 407.27" width="640" height="407.27"><defs><path d="M0 349.09C0 381.09 26.18 407.27 58.18 407.27C110.55 407.27 529.45 407.27 581.82 407.27C613.82 407.27 640 381.09 640 349.09C640 320 640 87.27 640 58.18C640 26.18 613.82 0 581.82 0C529.45 0 110.55 0 58.18 0C26.18 0 0.29 26.18 0.29 58.18C0.23 116.36 0.03 320 0 349.09ZM523.64 349.09L116.36 349.09L116.36 58.18L523.64 58.18L523.64 349.09Z" id="f1HuBUSllZ"></path></defs><g><g><g><use xlink:href="#f1HuBUSllZ" opacity="1" fill="#000000" fill-opacity="1"></use><g><use xlink:href="#f1HuBUSllZ" opacity="1" fill-opacity="0" stroke="#000000" stroke-width="1" stroke-opacity="0"></use></g></g></g></g></svg>